<?xml version="1.0" encoding="utf-8"?>
<!-- Generator: Adobe Illustrator 19.0.0, SVG Export Plug-In . SVG Version: 6.00 Build 0)  -->
<svg version="1.1" id="Layer_1" xmlns="http://www.w3.org/2000/svg" xmlns:xlink="http://www.w3.org/1999/xlink" x="0px" y="0px"
	 viewBox="0 0 500 500" style="enable-background:new 0 0 500 500;" xml:space="preserve">
<style type="text/css">
	.st0{fill:#61BB46;}
	.st1{fill:#FDB827;}
	.st2{fill:#F5821F;}
	.st3{fill:#E03A3E;}
	.st4{fill:#963D97;}
	.st5{fill:#009DDC;}
</style>
<g id="XMLID_1_">
	<path id="XMLID_3_" class="st0" d="M86.4,194.3c0.1-0.2,0.2-0.4,0.4-0.6c20.8-32.1,53.6-50.9,84.4-50.9c31.4,0,51.1,17.3,77.1,17.3
		c25.2,0,40.5-17.3,76.8-17.3c27.4,0,56.5,15,77.2,40.9c-5.7,3.1-10.9,6.7-15.5,10.7L86.4,194.3L86.4,194.3z"/>
	<path id="XMLID_4_" class="st0" d="M86.4,194.3l0.9,0.6c0.1-0.2,0.2-0.4,0.4-0.6l0,0l0,0c20.6-31.9,53.1-50.4,83.5-50.4
		c15.5,0,28.1,4.3,40.2,8.6c12.1,4.3,23.6,8.7,36.9,8.7c6.4,0,12.2-1.1,17.8-2.7c8.4-2.5,16.4-6.1,25.7-9.1c9.3-3,19.8-5.4,33.3-5.4
		c27,0,55.8,14.8,76.3,40.5l0.9-0.7l-0.5-1c-5.8,3.2-11,6.8-15.7,10.8l0.7,0.8v-1.1l-300.4,0l-0.6,2l0,0l0.9,0.6l0.6-1L86.4,194.3
		l0.6-0.9l0,0L86.4,194.3l0,1.1l300.8,0l0.3-0.3c4.6-3.9,9.7-7.4,15.3-10.5l1.1-0.6l-0.8-1c-20.9-26.2-50.2-41.3-78.1-41.3
		c-18.3,0-31.4,4.4-43,8.7c-5.8,2.2-11.2,4.3-16.6,5.9c-5.5,1.6-11,2.7-17.2,2.7c-12.7,0-24-4.2-36.1-8.6c-12.1-4.3-25-8.7-41-8.7
		c-31.3,0-64.4,19-85.3,51.4l0.9,0.6l-0.9-0.6c-0.1,0.2-0.3,0.4-0.4,0.6L86.4,194.3l0.6-0.9L86.4,194.3z"/>
	<path id="XMLID_5_" class="st0" d="M297.5,113.8c13.2-17,23.2-41,19.6-65.5c-21.5,1.5-46.7,15.3-61.5,33.2
		c-13.4,16.3-24.4,40.4-20.1,63.9C259.1,146.1,283.4,132,297.5,113.8L297.5,113.8z"/>
	<path id="XMLID_6_" class="st0" d="M297.5,113.8l0.9,0.7c11.4-14.8,20.5-34.7,20.5-55.9c0-3.5-0.2-7-0.8-10.5l-0.1-1l-1,0.1
		c-11,0.8-22.8,4.6-33.7,10.6c-10.9,5.9-21,13.9-28.5,23l0,0c-5.7,7-11.1,15.4-14.9,24.7c-3.9,9.2-6.3,19.2-6.3,29.4
		c0,3.6,0.3,7.2,1,10.7l0.2,0.9l0.9,0c0.6,0,1.2,0,1.8,0c11.7,0,23.5-3.5,34.1-9.3c10.6-5.8,20-13.7,27-22.7L297.5,113.8v1.1l0,0
		h0.5l0.3-0.4L297.5,113.8v-1.1l0,0H297l-0.3,0.4c-6.8,8.7-16,16.6-26.3,22.2c-10.3,5.6-21.8,9-33,9c-0.6,0-1.2,0-1.7,0l0,1.1
		l1.1-0.2c-0.6-3.4-0.9-6.9-0.9-10.3c0-9.8,2.4-19.5,6.2-28.5c3.8-9,9-17.3,14.6-24.1l0,0c7.2-8.8,17.1-16.7,27.8-22.5
		c10.7-5.8,22.3-9.6,32.8-10.3l-0.1-1.1l-1.1,0.2c0.5,3.4,0.7,6.8,0.7,10.1c0,20.5-8.9,40.1-20.1,54.5L297.5,113.8v-1.1V113.8z"/>
	<path id="XMLID_7_" class="st1" d="M85.3,193.8c-9,14.1-15.1,34.3-16.8,52l290.4,0c3.1-19.4,13.6-37.9,30.1-51.9L85.3,193.8
		L85.3,193.8L85.3,193.8z"/>
	<path id="XMLID_8_" class="st2" d="M71.2,297.3c-2.8-18.1-3.3-35.5-1.5-51.5l288.1,0c-2.8,17.3-0.5,35.4,6.7,51.5L71.2,297.3
		L71.2,297.3z"/>
	<path id="XMLID_9_" class="st2" d="M71.2,297.3l1.1-0.2c-1.7-10.9-2.5-21.6-2.5-31.9c0-6.6,0.4-13.1,1-19.3l-1.1-0.1l0,1.1l288.1,0
		v-1.1l-1.1-0.2c-0.8,4.8-1.2,9.7-1.2,14.6c0,12.9,2.7,25.7,7.9,37.6l1-0.4l0-1.1l-293.3,0l0,0V297.3l1.1-0.2L71.2,297.3v1.1l0,0
		l295,0l-0.7-1.6c-5.1-11.6-7.7-24.1-7.7-36.7c0-4.8,0.4-9.5,1.1-14.2l0.2-1.3l-290.4,0l-0.1,1c-0.7,6.3-1.1,12.9-1.1,19.6
		c0,10.4,0.8,21.2,2.6,32.2l0.1,0.9h0.9V297.3z"/>
	<path id="XMLID_10_" class="st3" d="M85.2,348.8c-6.8-17.3-11.5-34.7-14.1-51.5l293.3,0c9.1,20.6,25.9,38,49.5,47
		c-0.7,1.6-1.4,3.1-2,4.5L85.2,348.8L85.2,348.8z"/>
	<path id="XMLID_11_" class="st3" d="M85.2,348.8l1-0.4c-6.8-17.2-11.4-34.5-14-51.3l-1.1,0.2l0,1.1l293.3,0v-1.1l-1,0.4
		c9.2,20.8,26.2,38.5,50.2,47.6l0.4-1l-1-0.5c-0.7,1.6-1.4,3.1-2,4.5l1,0.5l0-1.1l-326.7,0L85.2,348.8l1-0.5l0,0L85.2,348.8l1-0.4
		L85.2,348.8l-1,0.5h0l0.3,0.6l328.1,0l0.3-0.7c0.7-1.4,1.3-2.9,2-4.5l0.5-1.1l-1.1-0.4c-23.4-8.9-40-26.1-48.9-46.4l-0.3-0.7
		l-295.3,0l0.2,1.3c2.6,16.9,7.3,34.4,14.1,51.7l0,0l0,0L85.2,348.8z"/>
	<path id="XMLID_12_" class="st4" d="M412,348.8c-8.1,17.9-12.8,27.2-24.1,44.4c-1.5,2.3-3.1,4.7-4.7,7l-270.7,0
		c-0.9-1.3-1.7-2.6-2.6-3.9c-10.1-15.5-18.3-31.5-24.6-47.6L412,348.8z"/>
	<path id="XMLID_13_" class="st4" d="M412,348.8l-1-0.5c-8.1,17.9-12.8,27.1-24,44.3c-1.5,2.3-3.1,4.7-4.7,7l0.9,0.6l0-1.1l-270.7,0
		l0,1.1l0.9-0.6c-0.9-1.3-1.7-2.6-2.6-3.9l0,0c-10.1-15.4-18.2-31.4-24.5-47.4l-1,0.4l0,1.1l326.7,0L412,348.8l-1-0.5L412,348.8
		l0-1.1l-328.3,0l0.6,1.5c6.4,16.2,14.6,32.3,24.8,47.8l0,0l0,0c0.8,1.3,1.7,2.6,2.6,3.9l0.3,0.5l271.9,0l0.3-0.5
		c1.6-2.4,3.2-4.8,4.7-7.1c11.3-17.2,16-26.6,24.2-44.6l0.7-1.6l-1.7,0L412,348.8z"/>
	<path id="XMLID_19_" d="M413.1,452.7c10.7,0,19.4-8.7,19.4-19.5c0-10.8-8.7-19.5-19.4-19.5c-10.7,0-19.4,8.7-19.4,19.5
		C393.7,443.9,402.4,452.7,413.1,452.7v-2.9c-4.6,0-8.7-1.9-11.7-4.9c-3-3-4.8-7.2-4.8-11.7c0-4.6,1.9-8.7,4.8-11.7
		c3-3,7.1-4.9,11.7-4.9c4.6,0,8.7,1.9,11.7,4.9c3,3,4.8,7.2,4.8,11.7c0,4.6-1.8,8.7-4.8,11.7c-3,3-7.1,4.9-11.7,4.9V452.7
		L413.1,452.7z M409.4,444.1v-18.7h6.6v-2.9h-9.5v21.6H409.4L409.4,444.1z M422.2,443.3l-4.8-10.2l-2.6,1.2l4.8,10.2L422.2,443.3z
		 M408,435h8v-2.9h-8V435z M416,435c0.8,0,1.5-0.2,2.1-0.5c1-0.5,1.8-1.3,2.4-2.3c0.6-1,1-2.1,1-3.4c0-1.8-0.7-3.3-1.7-4.4
		c-0.5-0.6-1.1-1-1.7-1.3c-0.6-0.3-1.4-0.5-2.1-0.5v2.9c0.2,0,0.5,0.1,0.8,0.2c0.4,0.2,0.9,0.6,1.2,1.2c0.3,0.5,0.6,1.2,0.6,2
		c0,0.9-0.4,1.8-0.9,2.4c-0.3,0.3-0.6,0.5-0.9,0.7c-0.3,0.2-0.6,0.2-0.8,0.2V435L416,435z"/>
	<path id="XMLID_20_" class="st5" d="M383.2,400.3c-16.6,24.4-38.8,51.2-65.8,51.4c-26.3,0.2-33.1-17.2-68.8-17
		c-35.7,0.2-43.2,17.3-69.5,17.1c-28.1-0.3-50-26.6-66.7-51.5L383.2,400.3z"/>
	<path id="XMLID_21_" class="st5" d="M383.2,400.3l-0.9-0.6c-8.3,12.1-17.9,24.9-28.8,34.5c-5.4,4.8-11.2,8.9-17.2,11.8
		c-6,2.9-12.3,4.5-18.9,4.6c-0.2,0-0.4,0-0.5,0c-6.3,0-11.4-1-16.2-2.6c-7.1-2.3-13.3-5.9-21.1-9c-7.8-3-17.1-5.5-30.4-5.5
		c-0.2,0-0.4,0-0.6,0c-17.9,0.1-28.9,4.4-38.5,8.7c-4.8,2.1-9.2,4.2-14.1,5.8c-4.8,1.6-10,2.6-16.4,2.6c-0.2,0-0.4,0-0.6,0
		c-6.9-0.1-13.3-1.7-19.5-4.6c-9.2-4.3-17.7-11.2-25.4-19.4c-7.7-8.2-14.7-17.7-20.9-27l-0.9,0.6l0,1.1l270.7,0V400.3l-0.9-0.6
		L383.2,400.3l0-1.1l-272.8,0l1.2,1.7c8.4,12.5,18,25.3,29.2,35.2c5.6,4.9,11.6,9.1,18,12c6.4,2.9,13.2,4.7,20.4,4.8
		c0.2,0,0.4,0,0.6,0c6.6,0,12-1.1,17-2.7c7.5-2.4,13.9-6,21.7-9c7.8-3,17-5.3,30.2-5.4c0.2,0,0.4,0,0.6,0c17.3,0,27.5,4.2,36.8,8.4
		c4.6,2.1,9.1,4.3,14,5.9c4.9,1.6,10.3,2.7,16.9,2.7c0.2,0,0.4,0,0.5,0c6.9-0.1,13.5-1.8,19.8-4.8c9.4-4.5,18-11.7,25.8-20
		c7.8-8.4,14.9-17.9,21.1-27l1.2-1.7l-2.1,0L383.2,400.3z"/>
</g>
</svg>
